<?xml version="1.0" encoding="utf-8"?>
<!-- Generator: Adobe Illustrator 18.1.1, SVG Export Plug-In . SVG Version: 6.00 Build 0)  -->
<svg version="1.1" id="Layer_1" xmlns="http://www.w3.org/2000/svg" xmlns:xlink="http://www.w3.org/1999/xlink" x="0px" y="0px"
	 viewBox="87.3 247 524.7 285.9" enable-background="new 87.3 247 524.7 285.9" xml:space="preserve">
<g id="BACKGROUND">
</g>
<path display="none" fill="#FFBC3A" d="M106.8,370.3c0,0.8-0.6,1.5-1.4,1.5c-0.8,0-1.4-0.7-1.4-1.5c0-0.8,0.6-1.5,1.4-1.5
	C106.2,368.9,106.8,369.5,106.8,370.3z"/>
<path fill="#FFF" id="svgMM110" d="M142.7,281.8c0,0.9-1.5,1.6-3.4,1.6h-25.7c-1.9,0-3.4-0.7-3.4-1.6v-20.4c0-0.9,1.5-1.6,3.4-1.6h25.7
	c1.9,0,3.4,0.7,3.4,1.6V281.8z"/>
<text transform="matrix(1.0216 0 0 1 120.0093 270.3116)" font-family="'ArialMT'" font-size="4.0296">MM110</text>
<text transform="matrix(1.0216 0 0 1 114.5992 275.1504)" font-family="'ArialMT'" font-size="4.0296">Matematicas I</text>
<path fill="#FFF" id="svgMM111" d="M142.7,318.3c0,0.9-1.5,1.6-3.4,1.6h-25.7c-1.9,0-3.4-0.7-3.4-1.6v-20.4c0-0.9,1.5-1.6,3.4-1.6h25.7
	c1.9,0,3.4,0.7,3.4,1.6V318.3z"/>
<text transform="matrix(1.0216 0 0 1 120.0093 304.3304)" font-family="'ArialMT'" font-size="4.0296">MM111</text>
<text transform="matrix(1.0216 0 0 1 115.5748 309.1693)" font-family="'ArialMT'" font-size="4.0296">Geometria y </text>
<text transform="matrix(1.0216 0 0 1 114.1822 313.9998)" font-family="'ArialMT'" font-size="4.0296">Trigonometria</text>
<path fill="#FFF" id="svgIS110" d="M142.7,349c0,0.9-1.5,1.6-3.4,1.6h-25.7c-1.9,0-3.4-0.7-3.4-1.6v-20.4c0-0.9,1.5-1.6,3.4-1.6h25.7
	c1.9,0,3.4,0.7,3.4,1.6V349z"/>
<text transform="matrix(1.0216 0 0 1 121.8121 337.4308)" font-family="'ArialMT'" font-size="4.0296">IS110</text>
<text transform="matrix(1.0216 0 0 1 112.526 342.2696)" font-family="'ArialMT'" font-size="3.5">Intro. a Sistemas</text>
<path fill="#FFF" id="svgSC101" d="M142.7,379.7c0,0.9-1.5,1.6-3.4,1.6h-25.7c-1.9,0-3.4-0.7-3.4-1.6v-20.4c0-0.9,1.5-1.6,3.4-1.6h25.7
	c1.9,0,3.4,0.7,3.4,1.6V379.7z"/>
<text transform="matrix(1.0216 0 0 1 121.1109 368.1712)" font-family="'ArialMT'" font-size="4.0296">SC101</text>
<text transform="matrix(1.0216 0 0 1 117.5679 373.0101)" font-family="'ArialMT'" font-size="4.0296">Sociologia</text>
<path fill="#FFF" id="svgIN101" d="M142.7,414.4c0,0.9-1.5,1.6-3.4,1.6h-25.7c-1.9,0-3.4-0.7-3.4-1.6V394c0-0.9,1.5-1.6,3.4-1.6h25.7
	c1.9,0,3.4,0.7,3.4,1.6V414.4z"/>
<text transform="matrix(1.0216 0 0 1 121.4732 402.8427)" font-family="'ArialMT'" font-size="4.0296">IN101</text>
<text transform="matrix(1.0216 0 0 1 120.4395 407.6815)" font-family="'ArialMT'" font-size="4.0296">Ingles I</text>
<path fill="#FFF" id="svgFF101" d="M142.7,449.2c0,0.9-1.5,1.6-3.4,1.6h-25.7c-1.9,0-3.4-0.7-3.4-1.6v-20.4c0-0.9,1.5-1.6,3.4-1.6h25.7
	c1.9,0,3.4,0.7,3.4,1.6V449.2z"/>
<text transform="matrix(1.0216 0 0 1 121.3145 437.8968)" font-family="'ArialMT'" font-size="4.0296">FF101</text>
<text transform="matrix(1.0216 0 0 1 119.3638 442.7356)" font-family="'ArialMT'" font-size="4.0296">Filosofía</text>
<path fill="#FFF" id="svgHH101" d="M143.7,483.1c0,0.9-1.5,1.6-3.4,1.6h-25.7c-1.9,0-3.4-0.7-3.4-1.6v-20.4c0-0.9,1.5-1.6,3.4-1.6h25.7
	c1.9,0,3.4,0.7,3.4,1.6V483.1z"/>
<text transform="matrix(1.0216 0 0 1 121.5801 469.1079)" font-family="'ArialMT'" font-size="4.0296">HH101</text>
<text transform="matrix(1.0216 0 0 1 117.7701 473.9468)" font-family="'ArialMT'" font-size="4.0296">Historia de </text>
<text transform="matrix(1.0216 0 0 1 119.046 478.7779)" font-family="'ArialMT'" font-size="4.0296">Honduras</text>
<path fill="#FFF" id="svgEG011" d="M143.9,515.9c0,0.9-1.5,1.6-3.4,1.6h-25.7c-1.9,0-3.4-0.7-3.4-1.6v-20.4c0-0.9,1.5-1.6,3.4-1.6h25.7
	c1.9,0,3.4,0.7,3.4,1.6V515.9z"/>
<text transform="matrix(1.0216 0 0 1 122.146 504.6174)" font-family="'ArialMT'" font-size="4.0296">EG011</text>
<text transform="matrix(1.0216 0 0 1 113.7847 509.4563)" font-family="'ArialMT'" font-size="3.5">Español General</text>
<path fill="#FFF" id="svgMM420" d="M347.2,281.8c0,0.9-1.5,1.6-3.4,1.6h-25.7c-1.9,0-3.4-0.7-3.4-1.6v-20.4c0-0.9,1.5-1.6,3.4-1.6h25.7
	c1.9,0,3.4,0.7,3.4,1.6V281.8z"/>
<text transform="matrix(1.0216 0 0 1 323.8178 267.8959)" font-family="'ArialMT'" font-size="4.0296">MM420</text>
<text transform="matrix(1.0216 0 0 1 319.3325 272.7348)" font-family="'ArialMT'" font-size="4.0296">Matematicas</text>
<text transform="matrix(1.0216 0 0 1 323.3257 277.5659)" font-family="'ArialMT'" font-size="4.0296">Discreta</text>
<path fill="#FFF" id="svgMM401" d="M347.2,318.3c0,0.9-1.5,1.6-3.4,1.6h-25.7c-1.9,0-3.4-0.7-3.4-1.6v-20.4c0-0.9,1.5-1.6,3.4-1.6h25.7
	c1.9,0,3.4,0.7,3.4,1.6V318.3z"/>
<text transform="matrix(1.0216 0 0 1 323.6059 306.7458)" font-family="'ArialMT'" font-size="4.0296">MM401</text>
<text transform="matrix(1.0216 0 0 1 321.0473 311.5846)" font-family="'ArialMT'" font-size="4.0296">Estadistica</text>
<path fill="#FFF" id="svgIS410" d="M347.2,348.4c0,0.8-1.5,1.5-3.4,1.5h-25.7c-1.9,0-3.4-0.7-3.4-1.5v-19.2c0-0.8,1.5-1.5,3.4-1.5h25.7
	c1.9,0,3.4,0.7,3.4,1.5V348.4z"/>
<text transform="matrix(1.0216 0 0 1 325.2363 335.015)" font-family="'ArialMT'" font-size="4.0296">IS410</text>
<text transform="matrix(1.0216 0 0 1 315.8994 339.8539)" font-family="'ArialMT'" font-size="4.0296">Programación III</text>
<text transform="matrix(1.0216 0 0 1 324.8105 344.685)" font-family="'ArialMT'" font-size="4.0296">(POO)</text>
<path fill="#FFF" id="svgIS411" d="M347.2,379.7c0,0.9-1.5,1.6-3.4,1.6h-25.7c-1.9,0-3.4-0.7-3.4-1.6v-20.4c0-0.9,1.5-1.6,3.4-1.6h25.7
	c1.9,0,3.4,0.7,3.4,1.6V379.7z"/>
<text transform="matrix(1.0216 0 0 1 325.188 365.7559)" font-family="'ArialMT'" font-size="4.0296">IS411</text>
<text transform="matrix(1.0216 0 0 1 316.1264 370.5948)" font-family="'ArialMT'" font-size="4.0296">Electronica para</text>
<text transform="matrix(1.0216 0 0 1 328.356 375.4253)" font-family="'ArialMT'" font-size="4.0296">IS</text>
<path fill="#FFF" id="svgIS412" d="M398.1,281.8c0,0.9-1.5,1.6-3.4,1.6H369c-1.9,0-3.4-0.7-3.4-1.6v-20.4c0-0.9,1.5-1.6,3.4-1.6h25.7
	c1.9,0,3.4,0.7,3.4,1.6V281.8z"/>
<text transform="matrix(1.0216 0 0 1 376.3752 267.8962)" font-family="'ArialMT'" font-size="4.0296">IS412</text>
<text transform="matrix(1.0216 0 0 1 373.0667 272.7351)" font-family="'ArialMT'" font-size="4.0296">Sistemas </text>
<text transform="matrix(1.0216 0 0 1 370.7405 277.5657)" font-family="'ArialMT'" font-size="4.0296">Operativos I</text>
<path fill="#FFF"  id="svgIS501" d="M398.1,318.3c0,0.9-1.5,1.6-3.4,1.6H369c-1.9,0-3.4-0.7-3.4-1.6v-20.4c0-0.9,1.5-1.6,3.4-1.6h25.7
	c1.9,0,3.4,0.7,3.4,1.6V318.3z"/>
<text transform="matrix(1.0216 0 0 1 375.4534 306.7457)" font-family="'ArialMT'" font-size="4.0296">IS501</text>
<text transform="matrix(1.0216 0 0 1 367.1917 311.5846)" font-family="'ArialMT'" font-size="4.0296">Base de Datos I</text>
<path fill="#FFF" id="svgIS510" d="M398.1,349c0,0.9-1.5,1.6-3.4,1.6H369c-1.9,0-3.4-0.7-3.4-1.6v-20.4c0-0.9,1.5-1.6,3.4-1.6h25.7
	c1.9,0,3.4,0.7,3.4,1.6V349z"/>
<text transform="matrix(1.0216 0 0 1 376.2752 335.0154)" font-family="'ArialMT'" font-size="4.0296">IS510</text>
<text transform="matrix(1.0216 0 0 1 369.823 339.8544)" font-family="'ArialMT'" font-size="4.0296">Instalaciones</text>
<text transform="matrix(1.0216 0 0 1 372.9324 344.6849)" font-family="'ArialMT'" font-size="4.0296">Electricas</text>
<rect x="369.5" y="336.6" fill="none" width="24.7" height="4.3"/>
<path fill="#FFF" id="svgIS511" d="M398.1,379.7c0,0.9-1.5,1.6-3.4,1.6H369c-1.9,0-3.4-0.7-3.4-1.6v-20.4c0-0.9,1.5-1.6,3.4-1.6h25.7
	c1.9,0,3.4,0.7,3.4,1.6V379.7z"/>
<text transform="matrix(1.0216 0 0 1 375.3865 368.1715)" font-family="'ArialMT'" font-size="4.0296">IS511</text>
<text transform="matrix(1.0216 0 0 1 365.9334 373.0103)" font-family="'ArialMT'" font-size="4.0296">Redes de Datos I</text>
<path fill="#FFF" id="svgIS512" d="M448.9,281.8c0,0.9-1.5,1.6-3.4,1.6h-25.7c-1.9,0-3.4-0.7-3.4-1.6v-20.4c0-0.9,1.5-1.6,3.4-1.6h25.7
	c1.9,0,3.4,0.7,3.4,1.6V281.8z"/>
<text transform="matrix(1.0216 0 0 1 427.1329 267.8963)" font-family="'ArialMT'" font-size="4.0296">IS512</text>
<text transform="matrix(1.0216 0 0 1 423.8233 272.7351)" font-family="'ArialMT'" font-size="4.0296">Sistemas </text>
<text transform="matrix(1.0216 0 0 1 421.0059 277.5657)" font-family="'ArialMT'" font-size="4.0296">Operativos II</text>
<rect x="420.3" y="269.5" fill="none" width="24.7" height="4.3"/>
<path fill="#FFF" id="svgIS601" d="M448.9,318.3c0,0.9-1.5,1.6-3.4,1.6h-25.7c-1.9,0-3.4-0.7-3.4-1.6v-20.4c0-0.9,1.5-1.6,3.4-1.6h25.7
	c1.9,0,3.4,0.7,3.4,1.6V318.3z"/>
<text transform="matrix(1.0216 0 0 1 426.2101 306.7459)" font-family="'ArialMT'" font-size="4.0296">IS601</text>
<text transform="matrix(1.0216 0 0 1 417.4571 311.5848)" font-family="'ArialMT'" font-size="4.0296">Base de Datos II</text>
<path fill="#FFF" id="svgIS513" d="M448.9,349c0,0.9-1.5,1.6-3.4,1.6h-25.7c-1.9,0-3.4-0.7-3.4-1.6v-20.4c0-0.9,1.5-1.6,3.4-1.6h25.7
	c1.9,0,3.4,0.7,3.4,1.6V349z"/>
<text transform="matrix(1.0216 0 0 1 427.0362 335.0154)" font-family="'ArialMT'" font-size="4.0296">IS513</text>
<text transform="matrix(1.0216 0 0 1 419.875 339.8543)" font-family="'ArialMT'" font-size="4.0296">Lenguajes de </text>
<text transform="matrix(1.0216 0 0 1 419.6086 344.6849)" font-family="'ArialMT'" font-size="4.0296">Programacion</text>
<path fill="#FFF" id="svgIS611" d="M448.9,379.7c0,0.9-1.5,1.6-3.4,1.6h-25.7c-1.9,0-3.4-0.7-3.4-1.6v-20.4c0-0.9,1.5-1.6,3.4-1.6h25.7
	c1.9,0,3.4,0.7,3.4,1.6V379.7z"/>
<text transform="matrix(1.0216 0 0 1 426.356 368.1715)" font-family="'ArialMT'" font-size="4.0296">IS611</text>
<text transform="matrix(1.0216 0 0 1 417.2281 373.0103)" font-family="'ArialMT'" font-size="4.0296">Rede de Datos II</text>
<path fill="#FFF" id="svgIS603" d="M448.9,414.4c0,0.9-1.5,1.6-3.4,1.6h-25.7c-1.9,0-3.4-0.7-3.4-1.6V394c0-0.9,1.5-1.6,3.4-1.6h25.7
	c1.9,0,3.4,0.7,3.4,1.6V414.4z"/>
<text transform="matrix(1.0216 0 0 1 427.3576 400.4275)" font-family="'ArialMT'" font-size="4.0296">IS603</text>
<text transform="matrix(1.0216 0 0 1 418.1465 405.2663)" font-family="'ArialMT'" font-size="4.0296">Arquitectura de </text>
<text transform="matrix(1.0216 0 0 1 419.2385 410.0964)" font-family="'ArialMT'" font-size="4.0296">Computadoras</text>
<path fill="#FFF" id="svgIS711" d="M499.8,414.4c0,0.9-1.5,1.6-3.4,1.6h-25.7c-1.9,0-3.4-0.7-3.4-1.6V394c0-0.9,1.5-1.6,3.4-1.6h25.7
	c1.9,0,3.4,0.7,3.4,1.6V414.4z"/>
<text transform="matrix(1.0216 0 0 1 478.1909 402.8424)" font-family="'ArialMT'" font-size="4.0296">IS711</text>
<text transform="matrix(1.0216 0 0 1 470.813 407.6813)" font-family="'ArialMT'" font-size="4.0296">Diseño Digital</text>
<path fill="#FFF" id="svgIS720" d="M499.8,281.8c0,0.9-1.5,1.6-3.4,1.6h-25.7c-1.9,0-3.4-0.7-3.4-1.6v-20.4c0-0.9,1.5-1.6,3.4-1.6h25.7
	c1.9,0,3.4,0.7,3.4,1.6V281.8z"/>
<text transform="matrix(1.0216 0 0 1 478.4193 270.3114)" font-family="'ArialMT'" font-size="4.0296">IS720</text>
<text transform="matrix(1.0216 0 0 1 470.0161 275.1502)" font-family="'ArialMT'" font-size="4.0296">Administracion</text>
<rect x="471.1" y="269.5" fill="none" width="24.7" height="4.3"/>
<path fill="#FFF" id="svgIS701" d="M499.8,318.3c0,0.9-1.5,1.6-3.4,1.6h-25.7c-1.9,0-3.4-0.7-3.4-1.6v-20.4c0-0.9,1.5-1.6,3.4-1.6h25.7
	c1.9,0,3.4,0.7,3.4,1.6V318.3z"/>
<text transform="matrix(1.0216 0 0 1 478.4599 304.3307)" font-family="'ArialMT'" font-size="4.0296">IS701</text>
<text transform="matrix(1.0216 0 0 1 473.0987 309.1696)" font-family="'ArialMT'" font-size="4.0296">Inteligencia</text>
<text transform="matrix(1.0216 0 0 1 476.084 314.0001)" font-family="'ArialMT'" font-size="4.0296">Artificial</text>
<path fill="#FFF" id="svgIS602" d="M499.8,349c0,0.9-1.5,1.6-3.4,1.6h-25.7c-1.9,0-3.4-0.7-3.4-1.6v-20.4c0-0.9,1.5-1.6,3.4-1.6h25.7
	c1.9,0,3.4,0.7,3.4,1.6V349z"/>
<text transform="matrix(1.0216 0 0 1 477.8134 335.015)" font-family="'ArialMT'" font-size="4.0296">IS602</text>
<text transform="matrix(1.0216 0 0 1 472.3115 339.8539)" font-family="'ArialMT'" font-size="4.0296">Sistemas de</text>
<text transform="matrix(1.0216 0 0 1 472.0605 344.6849)" font-family="'ArialMT'" font-size="4.0296">Informacion</text>
<path fill="#FFF" id="svgIS702" d="M499.8,379.7c0,0.9-1.5,1.6-3.4,1.6h-25.7c-1.9,0-3.4-0.7-3.4-1.6v-20.4c0-0.9,1.5-1.6,3.4-1.6h25.7
	c1.9,0,3.4,0.7,3.4,1.6V379.7z"/>
<text transform="matrix(1.0216 0 0 1 477.5883 365.7559)" font-family="'ArialMT'" font-size="4.0296">IS702</text>
<text transform="matrix(1.0216 0 0 1 468.184 370.5952)" font-family="'ArialMT'" font-size="4.0296">Analisis y diseño</text>
<text transform="matrix(1.0216 0 0 1 472.0864 375.4258)" font-family="'ArialMT'" font-size="4.0296">de Sistemas</text>
<path fill="#FFF" id="svgIS721" d="M550.6,281.8c0,0.9-1.5,1.6-3.4,1.6h-25.7c-1.9,0-3.4-0.7-3.4-1.6v-20.4c0-0.9,1.5-1.6,3.4-1.6h25.7
	c1.9,0,3.4,0.7,3.4,1.6V281.8z"/>
<text transform="matrix(1.0216 0 0 1 529.3079 270.3114)" font-family="'ArialMT'" font-size="4.0296">IS721</text>
<text transform="matrix(1.0216 0 0 1 522.9055 275.1502)" font-family="'ArialMT'" font-size="4.0296">Contabilidad</text>
<path fill="#FFF" id="svgIS820" d="M550.6,318.3c0,0.9-1.5,1.6-3.4,1.6h-25.7c-1.9,0-3.4-0.7-3.4-1.6v-20.4c0-0.9,1.5-1.6,3.4-1.6h25.7
	c1.9,0,3.4,0.7,3.4,1.6V318.3z"/>
<text transform="matrix(1.0216 0 0 1 529.0838 304.3307)" font-family="'ArialMT'" font-size="4.0296">IS820</text>
<text transform="matrix(1.0216 0 0 1 526.3075 309.1696)" font-family="'ArialMT'" font-size="4.0296">Finanzas</text>
<text transform="matrix(1.0216 0 0 1 520.3972 314.0001)" font-family="'ArialMT'" font-size="4.0296">Administrativas</text>
<path fill="#FFF"  id="svgIS902" d="M550.6,349c0,0.9-1.5,1.6-3.4,1.6h-25.7c-1.9,0-3.4-0.7-3.4-1.6v-20.4c0-0.9,1.5-1.6,3.4-1.6h25.7
	c1.9,0,3.4,0.7,3.4,1.6V349z"/>
<text transform="matrix(1.0216 0 0 1 529.013 335.0155)" font-family="'ArialMT'" font-size="4.0296">IS902</text>
<text transform="matrix(1.0216 0 0 1 522.7942 339.8543)" font-family="'ArialMT'" font-size="4.0296">Industria Del</text>
<text transform="matrix(1.0216 0 0 1 526.0452 344.6849)" font-family="'ArialMT'" font-size="4.0296">Software</text>
<path fill="#FFF" id="svgIS802" d="M550.6,379.7c0,0.9-1.5,1.6-3.4,1.6h-25.7c-1.9,0-3.4-0.7-3.4-1.6v-20.4c0-0.9,1.5-1.6,3.4-1.6h25.7
	c1.9,0,3.4,0.7,3.4,1.6V379.7z"/>
<text transform="matrix(1.0216 0 0 1 529.0003 365.756)" font-family="'ArialMT'" font-size="4.0296">IS802</text>
<text transform="matrix(1.0216 0 0 1 522.4475 370.5948)" font-family="'ArialMT'" font-size="4.0296">Ingenieria en</text>
<text transform="matrix(1.0216 0 0 1 526.0325 375.4254)" font-family="'ArialMT'" font-size="4.0296">Software</text>
<path fill="#FFF" id="svgIS811" d="M550.6,414.4c0,0.9-1.5,1.6-3.4,1.6h-25.7c-1.9,0-3.4-0.7-3.4-1.6V394c0-0.9,1.5-1.6,3.4-1.6h25.7
	c1.9,0,3.4,0.7,3.4,1.6V414.4z"/>
<text transform="matrix(1.0216 0 0 1 529.3192 400.4274)" font-family="'ArialMT'" font-size="4.0296">IS811</text>
<text transform="matrix(1.0216 0 0 1 525.1931 405.2663)" font-family="'ArialMT'" font-size="4.0296">Seguridad</text>
<text transform="matrix(1.0216 0 0 1 524.1677 410.0974)" font-family="'ArialMT'" font-size="4.0296">Informatica</text>
<path fill="#FFF" id="svgIS905" d="M601.4,318.3c0,0.9-1.5,1.6-3.4,1.6h-25.7c-1.9,0-3.4-0.7-3.4-1.6v-20.4c0-0.9,1.5-1.6,3.4-1.6H598
	c1.9,0,3.4,0.7,3.4,1.6V318.3z"/>
<text transform="matrix(1.0216 0 0 1 580.5166 304.3307)" font-family="'ArialMT'" font-size="4.0296">IS905</text>
<text transform="matrix(1.0216 0 0 1 576.2236 309.1696)" font-family="'ArialMT'" font-size="4.0296">Economia </text>
<text transform="matrix(1.0216 0 0 1 579.5498 314.0002)" font-family="'ArialMT'" font-size="4.0296">Digital</text>
<path fill="#FFF" id="svgIS906" d="M601.4,349c0,0.9-1.5,1.6-3.4,1.6h-25.7c-1.9,0-3.4-0.7-3.4-1.6v-20.4c0-0.9,1.5-1.6,3.4-1.6H598
	c1.9,0,3.4,0.7,3.4,1.6V349z"/>
<text transform="matrix(1.0216 0 0 1 580.5166 332.5961)" font-family="'ArialMT'" font-size="4.0296">IS906</text>
<text transform="matrix(1.0216 0 0 1 578.083 337.4349)" font-family="'ArialMT'" font-size="4.0296">Topicos </text>
<text transform="matrix(1.0216 0 0 1 574.5898 342.2655)" font-family="'ArialMT'" font-size="4.0296">Especiales y </text>
<text transform="matrix(1.0216 0 0 1 575.832 347.1043)" font-family="'ArialMT'" font-size="4.0296">Avanzados</text>
<path fill="#FFF" id="svgIS904" d="M601.4,379.7c0,0.9-1.5,1.6-3.4,1.6h-25.7c-1.9,0-3.4-0.7-3.4-1.6v-20.4c0-0.9,1.5-1.6,3.4-1.6H598
	c1.9,0,3.4,0.7,3.4,1.6V379.7z"/>
<text transform="matrix(1.0216 0 0 1 580.5166 365.7559)" font-family="'ArialMT'" font-size="4.0296">IS904</text>
<text transform="matrix(1.0216 0 0 1 577.5908 370.5948)" font-family="'ArialMT'" font-size="4.0296">Gerencia</text>
<text transform="matrix(1.0216 0 0 1 575.3652 375.4253)" font-family="'ArialMT'" font-size="4.0296">Informatica</text>
<path fill="#FFF" id="svgIS903" d="M601.4,414.4c0,0.9-1.5,1.6-3.4,1.6h-25.7c-1.9,0-3.4-0.7-3.4-1.6V394c0-0.9,1.5-1.6,3.4-1.6H598
	c1.9,0,3.4,0.7,3.4,1.6V414.4z"/>
<text transform="matrix(1.0216 0 0 1 580.5166 400.4272)" font-family="'ArialMT'" font-size="4.0296">IS903</text>
<text transform="matrix(1.0216 0 0 1 577.1993 405.2655)" font-family="'ArialMT'" font-size="4.0296">Auditoria</text>
<text transform="matrix(1.0216 0 0 1 575.3652 410.0966)" font-family="'ArialMT'" font-size="4.0296">Informatica</text>
<path fill="#FFF" id="svgMM314" d="M194.7,281.8c0,0.9-1.5,1.6-3.4,1.6h-25.7c-1.9,0-3.4-0.7-3.4-1.6v-20.4c0-0.9,1.5-1.6,3.4-1.6h25.7
	c1.9,0,3.4,0.7,3.4,1.6V281.8z"/>
<text transform="matrix(1.0216 0 0 1 171.0839 270.3114)" font-family="'ArialMT'" font-size="4.0296">MM314</text>
<text transform="matrix(1.0216 0 0 1 164.5316 275.1502)" font-family="'ArialMT'" font-size="4.0296">Programación I</text>
<path fill="#FFF" id="svgMM201" d="M194.7,318.3c0,0.9-1.5,1.6-3.4,1.6h-25.7c-1.9,0-3.4-0.7-3.4-1.6v-20.4c0-0.9,1.5-1.6,3.4-1.6h25.7
	c1.9,0,3.4,0.7,3.4,1.6V318.3z"/>
<text transform="matrix(1.0216 0 0 1 171.2723 306.7457)" font-family="'ArialMT'" font-size="4.0296">MM201</text>
<text transform="matrix(1.0216 0 0 1 170.4804 311.5846)" font-family="'ArialMT'" font-size="4.0296">Calculo I</text>
<path fill="#FFF" id="svgMM211" d="M194.7,349c0,0.9-1.5,1.6-3.4,1.6h-25.7c-1.9,0-3.4-0.7-3.4-1.6v-20.4c0-0.9,1.5-1.6,3.4-1.6h25.7
	c1.9,0,3.4,0.7,3.4,1.6V349z"/>
<text transform="matrix(1.0216 0 0 1 171.0871 335.015)" font-family="'ArialMT'" font-size="4.0296">MM211</text>
<text transform="matrix(1.0216 0 0 1 168.5861 339.8539)" font-family="'ArialMT'" font-size="4.0296">Vectores Y</text>
<text transform="matrix(1.0216 0 0 1 169.8781 344.6849)" font-family="'ArialMT'" font-size="4.0296"> Matrices</text>
<path fill="#FFF" id="svgIN102" d="M194.7,414.4c0,0.9-1.5,1.6-3.4,1.6h-25.7c-1.9,0-3.4-0.7-3.4-1.6V394c0-0.9,1.5-1.6,3.4-1.6h25.7
	c1.9,0,3.4,0.7,3.4,1.6V414.4z"/>
<text transform="matrix(1.0216 0 0 1 172.8058 402.8425)" font-family="'ArialMT'" font-size="4.0296">IN102</text>
<text transform="matrix(1.0216 0 0 1 171.2804 407.6813)" font-family="'ArialMT'" font-size="4.0296">Ingles II</text>
<path fill="#FFF" id="svgElectiva" d="M194.7,483.1c0,0.9-1.5,1.6-3.4,1.6h-25.7c-1.9,0-3.4-0.7-3.4-1.6v-20.4c0-0.9,1.5-1.6,3.4-1.6h25.7
	c1.9,0,3.4,0.7,3.4,1.6V483.1z"/>
<text transform="matrix(1.0216 0 0 1 170.1372 473.9426)" font-family="'ArialMT'" font-size="4.0296">Electiva I</text>
<path fill="#FFF" id="svgMM202" d="M245.6,318.3c0,0.9-1.5,1.6-3.4,1.6h-25.7c-1.9,0-3.4-0.7-3.4-1.6v-20.4c0-0.9,1.5-1.6,3.4-1.6h25.7
	c1.9,0,3.4,0.7,3.4,1.6V318.3z"/>
<text transform="matrix(1.0216 0 0 1 222.0293 306.7457)" font-family="'ArialMT'" font-size="4.0296">MM202</text>
<text transform="matrix(1.0216 0 0 1 220.7456 311.5846)" font-family="'ArialMT'" font-size="4.0296">Calculo II</text>
<path fill="#FFF" id="svgFS100" d="M245.6,349c0,0.9-1.5,1.6-3.4,1.6h-25.7c-1.9,0-3.4-0.7-3.4-1.6v-20.4c0-0.9,1.5-1.6,3.4-1.6h25.7
	c1.9,0,3.4,0.7,3.4,1.6V349z"/>
<text transform="matrix(1.0216 0 0 1 223.2488 337.4305)" font-family="'ArialMT'" font-size="4.0296">FS100</text>
<text transform="matrix(1.0216 0 0 1 222.8069 342.2693)" font-family="'ArialMT'" font-size="4.0296">Fisica I</text>
<path fill="#FFF" id="svgDQ101" d="M245.6,379.7c0,0.9-1.5,1.6-3.4,1.6h-25.7c-1.9,0-3.4-0.7-3.4-1.6v-20.4c0-0.9,1.5-1.6,3.4-1.6h25.7
	c1.9,0,3.4,0.7,3.4,1.6V379.7z"/>
<text transform="matrix(1.0216 0 0 1 223.1047 368.1714)" font-family="'ArialMT'" font-size="4.0296">DQ101</text>
<text transform="matrix(1.0216 0 0 1 222.3465 373.0104)" font-family="'ArialMT'" font-size="4.0296">Dibujo I</text>
<path fill="#FFF" id="svgIN103" d="M245.6,414.4c0,0.9-1.5,1.6-3.4,1.6h-25.7c-1.9,0-3.4-0.7-3.4-1.6V394c0-0.9,1.5-1.6,3.4-1.6h25.7
	c1.9,0,3.4,0.7,3.4,1.6V414.4z"/>
<text transform="matrix(1.0216 0 0 1 223.563 402.8425)" font-family="'ArialMT'" font-size="4.0296">IN103</text>
<text transform="matrix(1.0216 0 0 1 221.5454 407.6813)" font-family="'ArialMT'" font-size="4.0296">Ingles III</text>
<path fill="#FFF" id="svgIS210" d="M245.6,281.8c0,0.9-1.5,1.6-3.4,1.6h-25.7c-1.9,0-3.4-0.7-3.4-1.6v-20.4c0-0.9,1.5-1.6,3.4-1.6h25.7
	c1.9,0,3.4,0.7,3.4,1.6V281.8z"/>
<text transform="matrix(1.0216 0 0 1 223.6414 270.3114)" font-family="'ArialMT'" font-size="4.0296">IS210</text>
<text transform="matrix(1.0216 0 0 1 214.7966 275.1504)" font-family="'ArialMT'" font-size="4.0296">Programación II</text>
<path fill="#FFF" id="svgElectiva" d="M245.6,483.1c0,0.9-1.5,1.6-3.4,1.6h-25.7c-1.9,0-3.4-0.7-3.4-1.6v-20.4c0-0.9,1.5-1.6,3.4-1.6h25.7
	c1.9,0,3.4,0.7,3.4,1.6V483.1z"/>
<text transform="matrix(1.0216 0 0 1 220.4029 473.9426)" font-family="'ArialMT'" font-size="4.0296">Electiva II</text>
<path fill="#FFF" id="svgFS200" d="M296.4,349c0,0.9-1.5,1.6-3.4,1.6h-25.7c-1.9,0-3.4-0.7-3.4-1.6v-20.4c0-0.9,1.5-1.6,3.4-1.6H293
	c1.9,0,3.4,0.7,3.4,1.6V349z"/>
<text transform="matrix(1.0216 0 0 1 274.0057 337.4305)" font-family="'ArialMT'" font-size="4.0296">FS200</text>
<text transform="matrix(1.0216 0 0 1 273.0721 342.2694)" font-family="'ArialMT'" font-size="4.0296">Fisica II</text>
<path fill="#FFF" id="svgDQ102" d="M296.4,414.4c0,0.9-1.5,1.6-3.4,1.6h-25.7c-1.9,0-3.4-0.7-3.4-1.6V394c0-0.9,1.5-1.6,3.4-1.6H293
	c1.9,0,3.4,0.7,3.4,1.6V414.4z"/>
<text transform="matrix(1.0216 0 0 1 273.8624 402.8425)" font-family="'ArialMT'" font-size="4.0296">DQ102</text>
<text transform="matrix(1.0216 0 0 1 272.6119 407.6813)" font-family="'ArialMT'" font-size="4.0296">Dibujo II</text>
<rect x="267.8" y="402" fill="none" width="24.7" height="4.3"/>
<path fill="#FFF" id="svgIS310" d="M296.4,281.8c0,0.9-1.5,1.6-3.4,1.6h-25.7c-1.9,0-3.4-0.7-3.4-1.6v-20.4c0-0.9,1.5-1.6,3.4-1.6H293
	c1.9,0,3.4,0.7,3.4,1.6V281.8z"/>
<text transform="matrix(1.0216 0 0 1 274.4603 265.4766)" font-family="'ArialMT'" font-size="4.0296">IS310</text>
<text transform="matrix(1.0216 0 0 1 267.7665 270.3155)" font-family="'ArialMT'" font-size="4.0296">Algoritmos y </text>
<text transform="matrix(1.0216 0 0 1 267.3495 275.146)" font-family="'ArialMT'" font-size="4.0296">Estructura de </text>
<text transform="matrix(1.0216 0 0 1 274.1434 279.9849)" font-family="'ArialMT'" font-size="4.0296">Datos</text>
<path fill="#FFF" id="svgMM411" d="M296.4,318.3c0,0.9-1.5,1.6-3.4,1.6h-25.7c-1.9,0-3.4-0.7-3.4-1.6v-20.4c0-0.9,1.5-1.6,3.4-1.6H293
	c1.9,0,3.4,0.7,3.4,1.6V318.3z"/>
<text transform="matrix(1.0216 0 0 1 272.8502 304.3307)" font-family="'ArialMT'" font-size="4.0296">MM411</text>
<text transform="matrix(1.0216 0 0 1 269.3072 309.1695)" font-family="'ArialMT'" font-size="4.0296">Ecuaciones </text>
<text transform="matrix(1.0216 0 0 1 268.2652 314.0001)" font-family="'ArialMT'" font-size="4.0296">Diferenciales</text>
<path fill="#FFF" id="svgIS311" d="M296.4,379.7c0,0.9-1.5,1.6-3.4,1.6h-25.7c-1.9,0-3.4-0.7-3.4-1.6v-20.4c0-0.9,1.5-1.6,3.4-1.6H293
	c1.9,0,3.4,0.7,3.4,1.6V379.7z"/>
<text transform="matrix(1.0216 0 0 1 274.7171 365.7559)" font-family="'ArialMT'" font-size="4.0296">IS311</text>
<text transform="matrix(1.0216 0 0 1 271.4413 370.5948)" font-family="'ArialMT'" font-size="4.0296">Circuitos </text>
<text transform="matrix(1.0216 0 0 1 271.2411 375.4253)" font-family="'ArialMT'" font-size="4.0296">Electricos</text>
<path fill="#FFF" id="svgElectiva" d="M296.4,483.1c0,0.9-1.5,1.6-3.4,1.6h-25.7c-1.9,0-3.4-0.7-3.4-1.6v-20.4c0-0.9,1.5-1.6,3.4-1.6H293
	c1.9,0,3.4,0.7,3.4,1.6V483.1z"/>
<text transform="matrix(1.0216 0 0 1 270.6681 473.9426)" font-family="'ArialMT'" font-size="4.0296">Electiva III</text>
<g>
	<text transform="matrix(1.1383 0 0 1 350.5504 403.1785)" font-family="'ArialMT'" font-size="6.808">Optativas</text>
	<text transform="matrix(1.0266 0 0 1 319.9391 448.0018)" font-family="'ArialMT'" font-size="6.808">3.Sistemas Expertos (IS912)</text>
	<text transform="matrix(0.8317 0 0 1 319.6997 415.1365)" font-family="'ArialMT'" font-size="6.808">1.Teoria de la Simulacion (IS910)</text>
	<text transform="matrix(0.9677 0 0 1 319.7603 431.0135)" font-family="'ArialMT'" font-size="6.808">2.Microprocesadores (IS911)</text>
	<text transform="matrix(0.7749 0 0 1 320.0816 465.1971)" font-family="'ArialMT'" font-size="6.808">4.Diseño de Compiladores (IS913)</text>
	<text transform="matrix(0.7454 0 0 1 320.0934 482.4852)" font-family="'ArialMT'" font-size="6.808">5.Liderazgo para el Cambio (IS914)</text>
</g>
<path fill="#FFF" id="svgIS912" d="M484.3,451c0,0.5-0.7,0.9-1.6,0.9h-12c-0.9,0-1.6-0.4-1.6-0.9v-10.9c0-0.5,0.7-0.9,1.6-0.9h12
	c0.9,0,1.6,0.4,1.6,0.9V451z"/>
<text transform="matrix(1.0111 0 0 1 475.0984 447.3695)" font-family="'ArialMT'" font-size="6.1517">3</text>
<path fill="#FFF" id="svgIS913" d="M509,451.2c0,0.5-0.7,0.9-1.6,0.9h-12c-0.9,0-1.6-0.4-1.6-0.9v-10.9c0-0.5,0.7-0.9,1.6-0.9h12
	c0.9,0,1.6,0.4,1.6,0.9V451.2z"/>
<text transform="matrix(1.0111 0 0 1 499.8759 446.7371)" font-family="'ArialMT'" font-size="6.1517">4</text>
<path fill="#FFF" id="svgIS910" d="M435.5,451c0,0.5-0.7,0.9-1.6,0.9h-12c-0.9,0-1.6-0.4-1.6-0.9v-10.9c0-0.5,0.7-0.9,1.6-0.9h12
	c0.9,0,1.6,0.4,1.6,0.9V451z"/>
<text transform="matrix(1.0111 0 0 1 426.3261 447.3695)" font-family="'ArialMT'" font-size="6.1517">1</text>
<path fill="#FFF" id="svgIS911" d="M460.3,451.2c0,0.5-0.7,0.9-1.6,0.9h-12c-0.9,0-1.6-0.4-1.6-0.9v-10.9c0-0.5,0.7-0.9,1.6-0.9h12
	c0.9,0,1.6,0.4,1.6,0.9V451.2z"/>
<text transform="matrix(1.0111 0 0 1 451.1035 446.7371)" font-family="'ArialMT'" font-size="6.1517">2</text>
<g>
	<line fill="#231F20" x1="142.7" y1="271.7" x2="162.2" y2="271.7"/>
	<g>
		<line fill="none" stroke="#000000" stroke-width="0.5" stroke-miterlimit="10" x1="142.7" y1="271.7" x2="160.8" y2="271.7"/>
		<g>
			<polygon points="160.2,272.5 160.6,271.7 160.2,270.8 162.2,271.7 			"/>
		</g>
	</g>
</g>
<g>
	<line fill="#231F20" x1="142.7" y1="308.1" x2="162.2" y2="308.1"/>
	<g>
		<line fill="none" stroke="#000000" stroke-width="0.5" stroke-miterlimit="10" x1="142.7" y1="308.1" x2="160.8" y2="308.1"/>
		<g>
			<polygon points="160.2,309 160.6,308.1 160.2,307.2 162.2,308.1 			"/>
		</g>
	</g>
</g>
<g>
	<line fill="#231F20" x1="194.7" y1="308.1" x2="213.1" y2="308.1"/>
	<g>
		<line fill="none" stroke="#000000" stroke-width="0.5" stroke-miterlimit="10" x1="194.7" y1="308.1" x2="211.7" y2="308.1"/>
		<g>
			<polygon points="211,309 211.4,308.1 211,307.2 213.1,308.1 			"/>
		</g>
	</g>
</g>
<g>
	<line fill="#231F20" x1="245.6" y1="309.2" x2="263.9" y2="309.2"/>
	<g>
		<line fill="none" stroke="#000000" stroke-width="0.5" stroke-miterlimit="10" x1="245.6" y1="309.2" x2="262.5" y2="309.2"/>
		<g>
			<polygon points="261.9,310 262.2,309.2 261.9,308.3 263.9,309.2 			"/>
		</g>
	</g>
</g>
<g>
	<line fill="#231F20" x1="245.6" y1="338.8" x2="263.9" y2="338.8"/>
	<g>
		<line fill="none" stroke="#000000" stroke-width="0.5" stroke-miterlimit="10" x1="245.6" y1="338.8" x2="262.5" y2="338.8"/>
		<g>
			<polygon points="261.9,339.6 262.2,338.8 261.9,337.9 263.9,338.8 			"/>
		</g>
	</g>
</g>
<g>
	<line fill="#231F20" x1="194.7" y1="339.9" x2="213.1" y2="339.9"/>
	<g>
		<line fill="none" stroke="#000000" stroke-width="0.5" stroke-miterlimit="10" x1="194.7" y1="339.9" x2="211.7" y2="339.9"/>
		<g>
			<polygon points="211,340.7 211.4,339.9 211,339 213.1,339.9 			"/>
		</g>
	</g>
</g>
<g>
	<line fill="#231F20" x1="142.7" y1="404.2" x2="162.2" y2="404.2"/>
	<g>
		<line fill="none" stroke="#000000" stroke-width="0.5" stroke-miterlimit="10" x1="142.7" y1="404.2" x2="160.8" y2="404.2"/>
		<g>
			<polygon points="160.2,405.1 160.6,404.2 160.2,403.3 162.2,404.2 			"/>
		</g>
	</g>
</g>
<g>
	<line fill="#231F20" x1="194.7" y1="404.2" x2="212.8" y2="404.2"/>
	<g>
		<line fill="none" stroke="#000000" stroke-width="0.5" stroke-miterlimit="10" x1="194.7" y1="404.2" x2="211.3" y2="404.2"/>
		<g>
			<polygon points="210.7,405.1 211.1,404.2 210.7,403.3 212.8,404.2 			"/>
		</g>
	</g>
</g>
<g>
	<line fill="#231F20" x1="194.7" y1="271.7" x2="213.1" y2="271.7"/>
	<g>
		<line fill="none" stroke="#000000" stroke-width="0.5" stroke-miterlimit="10" x1="194.7" y1="271.7" x2="211.7" y2="271.7"/>
		<g>
			<polygon points="211,272.5 211.4,271.7 211,270.8 213.1,271.7 			"/>
		</g>
	</g>
</g>
<g>
	<line fill="#231F20" x1="245.6" y1="272.7" x2="263.9" y2="272.7"/>
	<g>
		<line fill="none" stroke="#000000" stroke-width="0.5" stroke-miterlimit="10" x1="245.6" y1="272.7" x2="262.5" y2="272.7"/>
		<g>
			<polygon points="261.9,273.6 262.2,272.7 261.9,271.9 263.9,272.7 			"/>
		</g>
	</g>
</g>
<g>
	<line fill="#231F20" x1="398.1" y1="271.7" x2="416.4" y2="271.7"/>
	<g>
		<line fill="none" stroke="#000000" stroke-width="0.5" stroke-miterlimit="10" x1="398.1" y1="271.7" x2="415" y2="271.7"/>
		<g>
			<polygon points="414.4,272.5 414.7,271.7 414.4,270.8 416.4,271.7 			"/>
		</g>
	</g>
</g>
<g>
	<line fill="#231F20" x1="347.2" y1="271.7" x2="365.6" y2="271.7"/>
	<g>
		<line fill="none" stroke="#000000" stroke-width="0.5" stroke-miterlimit="10" x1="347.2" y1="271.7" x2="364.2" y2="271.7"/>
		<g>
			<polygon points="363.5,272.5 363.9,271.7 363.5,270.8 365.6,271.7 			"/>
		</g>
	</g>
</g>
<g>
	<line fill="#231F20" x1="347.1" y1="309.2" x2="365.6" y2="309.2"/>
	<g>
		<line fill="none" stroke="#000000" stroke-width="0.5" stroke-miterlimit="10" x1="347.1" y1="309.2" x2="364.2" y2="309.2"/>
		<g>
			<polygon points="363.5,310 363.9,309.2 363.5,308.3 365.6,309.2 			"/>
		</g>
	</g>
</g>
<g>
	<line fill="#231F20" x1="398.1" y1="308.4" x2="416.6" y2="308.4"/>
	<g>
		<line fill="none" stroke="#000000" stroke-width="0.5" stroke-miterlimit="10" x1="398.1" y1="308.4" x2="415.2" y2="308.4"/>
		<g>
			<polygon points="414.5,309.2 414.9,308.4 414.5,307.5 416.6,308.4 			"/>
		</g>
	</g>
</g>
<g>
	<line fill="#231F20" x1="448.9" y1="308.1" x2="467.4" y2="308.1"/>
	<g>
		<line fill="none" stroke="#000000" stroke-width="0.5" stroke-miterlimit="10" x1="448.9" y1="308.1" x2="466" y2="308.1"/>
		<g>
			<polygon points="465.4,309 465.7,308.1 465.4,307.2 467.4,308.1 			"/>
		</g>
	</g>
</g>
<g>
	<line fill="#231F20" x1="448.8" y1="339.9" x2="467.3" y2="339.9"/>
	<g>
		<line fill="none" stroke="#000000" stroke-width="0.5" stroke-miterlimit="10" x1="448.8" y1="339.9" x2="465.9" y2="339.9"/>
		<g>
			<polygon points="465.2,340.7 465.6,339.9 465.2,339 467.3,339.9 			"/>
		</g>
	</g>
</g>
<g>
	<line fill="#231F20" x1="499.9" y1="271.7" x2="518.4" y2="271.7"/>
	<g>
		<line fill="none" stroke="#000000" stroke-width="0.5" stroke-miterlimit="10" x1="499.9" y1="271.7" x2="517" y2="271.7"/>
		<g>
			<polygon points="516.3,272.5 516.7,271.7 516.3,270.8 518.4,271.7 			"/>
		</g>
	</g>
</g>
<g>
	<line fill="#231F20" x1="499.8" y1="405.3" x2="518.3" y2="405.3"/>
	<g>
		<line fill="none" stroke="#000000" stroke-width="0.5" stroke-miterlimit="10" x1="499.8" y1="405.3" x2="516.8" y2="405.3"/>
		<g>
			<polygon points="516.2,406.1 516.6,405.3 516.2,404.4 518.3,405.3 			"/>
		</g>
	</g>
</g>
<g>
	<line fill="#231F20" x1="499.8" y1="370.6" x2="518.3" y2="370.6"/>
	<g>
		<line fill="none" stroke="#000000" stroke-width="0.5" stroke-miterlimit="10" x1="499.8" y1="370.6" x2="516.8" y2="370.6"/>
		<g>
			<polygon points="516.2,371.5 516.6,370.6 516.2,369.7 518.3,370.6 			"/>
		</g>
	</g>
</g>
<g>
	<line fill="#231F20" x1="448.8" y1="405.3" x2="467.3" y2="405.3"/>
	<g>
		<line fill="none" stroke="#000000" stroke-width="0.5" stroke-miterlimit="10" x1="448.8" y1="405.3" x2="465.9" y2="405.3"/>
		<g>
			<polygon points="465.2,406.1 465.6,405.3 465.2,404.4 467.3,405.3 			"/>
		</g>
	</g>
</g>
<g>
	<line fill="#231F20" x1="398.1" y1="370.6" x2="416.6" y2="370.6"/>
	<g>
		<line fill="none" stroke="#000000" stroke-width="0.5" stroke-miterlimit="10" x1="398.1" y1="370.6" x2="415.2" y2="370.6"/>
		<g>
			<polygon points="414.5,371.5 414.9,370.6 414.5,369.7 416.6,370.6 			"/>
		</g>
	</g>
</g>
<g>
	<line fill="#231F20" x1="347.1" y1="370.6" x2="365.6" y2="370.6"/>
	<g>
		<line fill="none" stroke="#000000" stroke-width="0.5" stroke-miterlimit="10" x1="347.1" y1="370.6" x2="364.2" y2="370.6"/>
		<g>
			<polygon points="363.5,371.5 363.9,370.6 363.5,369.7 365.6,370.6 			"/>
		</g>
	</g>
</g>
<g>
	<line fill="#231F20" x1="296.3" y1="370.6" x2="314.8" y2="370.6"/>
	<g>
		<line fill="none" stroke="#000000" stroke-width="0.5" stroke-miterlimit="10" x1="296.3" y1="370.6" x2="313.4" y2="370.6"/>
		<g>
			<polygon points="312.7,371.5 313.1,370.6 312.7,369.7 314.8,370.6 			"/>
		</g>
	</g>
</g>
<g>
	<line fill="#231F20" x1="550.4" y1="405.3" x2="568.9" y2="405.3"/>
	<g>
		<line fill="none" stroke="#000000" stroke-width="0.5" stroke-miterlimit="10" x1="550.4" y1="405.3" x2="567.5" y2="405.3"/>
		<g>
			<polygon points="566.9,406.1 567.3,405.3 566.9,404.4 568.9,405.3 			"/>
		</g>
	</g>
</g>
<g>
	<line fill="#231F20" x1="550.6" y1="309.2" x2="569.1" y2="309.2"/>
	<g>
		<line fill="none" stroke="#000000" stroke-width="0.5" stroke-miterlimit="10" x1="550.6" y1="309.2" x2="567.7" y2="309.2"/>
		<g>
			<polygon points="567,310 567.4,309.2 567,308.3 569.1,309.2 			"/>
		</g>
	</g>
</g>
<g>
	<g>
		<path fill="none" stroke="#000000" stroke-width="0.5" stroke-miterlimit="10" d="M126.5,283.5v6c18.6,0,52,0.4,52,0.4s0,2.7,0,5"
			/>
		<g>
			<polygon points="177.6,294.2 178.5,294.6 179.4,294.2 178.5,296.3 			"/>
		</g>
	</g>
</g>
<path fill="#231F20" stroke="#000000" stroke-width="0.5" stroke-miterlimit="10" d="M175.3,291.8"/>
<g>
	<g>
		<path fill="none" stroke="#000000" stroke-width="0.5" stroke-miterlimit="10" d="M124.6,259.9v-4.2c18.6,0,7.8,0,26.4,0
			c-0.1,14.5,0.8,84.2,0.8,84.2s0,0,9.2,0"/>
		<g>
			<polygon points="160.2,340.7 160.6,339.9 160.2,339 162.2,339.9 			"/>
		</g>
	</g>
</g>
<g>
	<g>
		<polyline fill="none" stroke="#000000" stroke-width="0.5" stroke-miterlimit="10" points="178.5,259.9 178.5,252.8 306,252.8 
			306.1,272.7 313.4,272.7 		"/>
		<g>
			<polygon points="312.7,273.6 313.1,272.7 312.7,271.9 314.8,272.7 			"/>
		</g>
	</g>
</g>
<g>
	<g>
		<polyline fill="none" stroke="#000000" stroke-width="0.5" stroke-miterlimit="10" points="296.4,272.2 301.5,272.2 301.8,342.3 
			313.4,342.3 		"/>
		<g>
			<polygon points="312.7,343.1 313.1,342.3 312.7,341.4 314.8,342.3 			"/>
		</g>
	</g>
</g>
<g>
	<g>
		<polyline fill="none" stroke="#000000" stroke-width="0.5" stroke-miterlimit="10" points="328.4,259.9 328.4,252.8 459.9,252.8 
			460,272.7 465.9,272.7 		"/>
		<g>
			<polygon points="465.2,273.6 465.6,272.7 465.2,271.9 467.3,272.7 			"/>
		</g>
	</g>
</g>
<g>
	<g>
		<polyline fill="none" stroke="#000000" stroke-width="0.5" stroke-miterlimit="10" points="178.5,319.9 178.5,323 195.4,322.9 
			229.3,322.9 229.3,325.3 		"/>
		<g>
			<polygon points="228.5,324.6 229.3,325 230.2,324.6 229.3,326.7 			"/>
		</g>
	</g>
</g>
<g>
	<g>
		<polyline fill="none" stroke="#000000" stroke-width="0.5" stroke-miterlimit="10" points="229.3,296.3 229.3,293.2 333.9,293.3 
			333.9,294.9 		"/>
		<g>
			<polygon points="333,294.2 333.9,294.6 334.7,294.2 333.9,296.3 			"/>
		</g>
	</g>
</g>
<g>
	<g>
		<polyline fill="none" stroke="#000000" stroke-width="0.5" stroke-miterlimit="10" points="280.2,319.9 280.2,323.3 298,323.3 
			298,353.6 281.6,353.6 281.6,355.7 		"/>
		<g>
			<polygon points="280.7,355.1 281.6,355.4 282.5,355.1 281.6,357.1 			"/>
		</g>
	</g>
</g>
<g>
	<g>
		<polyline fill="none" stroke="#000000" stroke-width="0.5" stroke-miterlimit="10" points="483.5,319.8 483.5,322.3 455.5,322.3 
			455.2,420.3 428,420.5 428.1,437.8 		"/>
		<g>
			<polygon points="427.2,437.1 428.1,437.5 429,437.1 428.1,439.2 			"/>
		</g>
	</g>
</g>
<g>
	<g>
		<line fill="none" stroke="#000000" stroke-width="0.5" stroke-miterlimit="10" x1="534.3" y1="283.2" x2="534.3" y2="294.9"/>
		<g>
			<polygon points="533.5,294.2 534.3,294.6 535.2,294.2 534.3,296.3 			"/>
		</g>
	</g>
</g>
<g>
	<g>
		<polyline fill="none" stroke="#000000" stroke-width="0.5" stroke-miterlimit="10" points="518.1,309.3 513.6,309.2 513.3,425.5 
			453.2,425 453.2,438 		"/>
		<g>
			<polygon points="452.3,437.4 453.2,437.7 454,437.4 453.2,439.4 			"/>
		</g>
	</g>
</g>
<g>
	<g>
		<polyline fill="none" stroke="#000000" stroke-width="0.5" stroke-miterlimit="10" points="142.7,339.9 146.4,339.9 146.4,286.4 
			178.5,286.4 178.5,284.4 		"/>
		<g>
			<polygon points="179.4,285.1 178.5,284.7 177.6,285.1 178.5,283 			"/>
		</g>
	</g>
</g>
<g>
	<g>
		<polyline fill="none" stroke="#000000" stroke-width="0.5" stroke-miterlimit="10" points="178.5,350.6 178.5,370.6 203.9,370.6 
			211.7,370.6 		"/>
		<g>
			<polygon points="211,371.5 211.4,370.6 211,369.7 213.1,370.6 			"/>
		</g>
	</g>
</g>
<g>
	<g>
		<polyline fill="none" stroke="#000000" stroke-width="0.5" stroke-miterlimit="10" points="229.3,350.6 229.3,353.1 257.9,353.1 
			258,370.6 262,370.6 		"/>
		<g>
			<polygon points="261.3,371.5 261.7,370.6 261.3,369.7 263.4,370.6 			"/>
		</g>
	</g>
</g>
<g>
	<g>
		<polyline fill="none" stroke="#000000" stroke-width="0.5" stroke-miterlimit="10" points="331,327.7 331,322.3 381.8,322.3 
			381.8,321.3 		"/>
		<g>
			<polygon points="382.7,322 381.8,321.6 381,322 381.8,319.9 			"/>
		</g>
	</g>
</g>
<g>
	<g>
		<polyline fill="none" stroke="#000000" stroke-width="0.5" stroke-miterlimit="10" points="331,349.9 331,352.9 432.7,353 
			432.7,352.8 432.7,352 		"/>
		<g>
			<polygon points="433.5,352.6 432.7,352.3 431.8,352.6 432.7,350.6 			"/>
		</g>
	</g>
</g>
<g>
	<g>
		<polyline fill="none" stroke="#000000" stroke-width="0.5" stroke-miterlimit="10" points="229.3,381.3 229.3,385.3 281.6,385.3 
			281.6,388.3 281.6,391 		"/>
		<g>
			<polygon points="280.7,390.3 281.6,390.7 282.5,390.3 281.6,392.4 			"/>
		</g>
	</g>
</g>
<g>
	<g>
		<polyline fill="none" stroke="#000000" stroke-width="0.5" stroke-miterlimit="10" points="296.4,367.2 305.6,367.2 305.6,354.8 
			356.4,354.8 356.3,339.9 364.2,339.9 		"/>
		<g>
			<polygon points="363.5,340.7 363.9,339.9 363.5,339 365.6,339.9 			"/>
		</g>
	</g>
</g>
<g>
	<g>
		<polyline fill="none" stroke="#000000" stroke-width="0.5" stroke-miterlimit="10" points="381.8,381.3 381.8,386.8 409.9,386.8 
			409.9,404.9 415,404.9 		"/>
		<g>
			<polygon points="414.4,405.7 414.7,404.9 414.4,404 416.4,404.9 			"/>
		</g>
	</g>
</g>
<g>
	<g>
		<polyline fill="none" stroke="#000000" stroke-width="0.5" stroke-miterlimit="10" points="448.9,369.5 462.4,369.5 462.4,433.8 
			476.7,433.8 476.7,437.8 		"/>
		<g>
			<polygon points="475.9,437.2 476.7,437.5 477.6,437.2 476.7,439.2 			"/>
		</g>
	</g>
</g>
<g>
	<g>
		<line fill="none" stroke="#000000" stroke-width="0.5" stroke-miterlimit="10" x1="483.5" y1="350.6" x2="483.5" y2="356.3"/>
		<g>
			<polygon points="482.6,355.7 483.5,356 484.4,355.7 483.5,357.7 			"/>
		</g>
	</g>
</g>
<g>
	<path fill="none" d="M567.6,379.3"/>
</g>
<g>
	<g>
		<line fill="none" stroke="#000000" stroke-width="0.5" stroke-miterlimit="10" x1="534.3" y1="357.7" x2="534.3" y2="352"/>
		<g>
			<polygon points="535.2,352.6 534.3,352.3 533.5,352.6 534.3,350.6 			"/>
		</g>
	</g>
</g>
<g>
	<g>
		<line fill="none" stroke="#000000" stroke-width="0.5" stroke-miterlimit="10" x1="585.2" y1="357.7" x2="585.2" y2="352"/>
		<g>
			<polygon points="586.1,352.6 585.2,352.3 584.3,352.6 585.2,350.6 			"/>
		</g>
	</g>
</g>
<g>
	<g>
		<polyline fill="none" stroke="#000000" stroke-width="0.5" stroke-miterlimit="10" points="483.5,327 483.5,324.4 486.3,324.3 
			486.3,321.3 		"/>
		<g>
			<polygon points="487.1,322 486.3,321.6 485.4,322 486.3,319.9 			"/>
		</g>
	</g>
</g>
<path fill="#FFF" id="svgIS914" d="M531.7,451c0,0.5-0.7,0.9-1.6,0.9h-12c-0.9,0-1.6-0.4-1.6-0.9v-10.9c0-0.5,0.7-0.9,1.6-0.9h12
	c0.9,0,1.6,0.4,1.6,0.9V451z"/>
<text transform="matrix(1.0111 0 0 1 522.5681 446.5275)" font-family="'ArialMT'" font-size="6.1517">5</text>
<g>
	<g>
		<polyline fill="none" stroke="#000000" stroke-width="0.5" stroke-miterlimit="10" points="437.1,416 437.1,431 501.5,431.6 
			501.5,437.8 		"/>
		<g>
			<polygon points="500.6,437.1 501.5,437.5 502.3,437.1 501.5,439.2 			"/>
		</g>
	</g>
</g>
<g>
	<g>
		<polyline fill="none" stroke="#000000" stroke-width="0.5" stroke-miterlimit="10" points="534.3,392.4 534.3,387.9 585.2,387.8 
			585.2,382.7 		"/>
		<g>
			<polygon points="586.1,383.4 585.2,383 584.3,383.4 585.2,381.3 			"/>
		</g>
	</g>
</g>
<g>
	<g>
		<polyline fill="none" stroke="#000000" stroke-width="0.5" stroke-miterlimit="10" points="477.6,431.4 501.5,431.6 525.2,432 
			525.2,437.8 		"/>
		<g>
			<polygon points="524.3,437.2 525.2,437.5 526.1,437.2 525.2,439.2 			"/>
		</g>
	</g>
</g>
<g>
	<g>
		<polyline fill="none" stroke="#000000" stroke-width="0.5" stroke-miterlimit="10" points="142.7,439 309,439 309.3,288.3 
			331,288.3 331,284.4 		"/>
		<g>
			<polygon points="331.9,285.1 331,284.7 330.1,285.1 331,283 			"/>
		</g>
	</g>
</g>
</svg>
